<svg width="276" height="274" viewBox="0 0 276 274" fill="none" xmlns="http://www.w3.org/2000/svg">
<path d="M68.823 84.9634L15.1631 116.688V52.973L68.823 21.2539V84.9634Z" fill="white"/>
<path d="M14.1084 117.307L15.1572 117.952L69.8714 85.6054L68.8226 84.9609L14.1084 117.307Z" fill="#FAFAFA"/>
<path d="M71.8589 17.1016L13.1758 51.7998V121.479L71.8589 86.7806V17.1016ZM69.8717 85.6104L15.163 117.957V52.9756L69.8717 20.6234V85.6104Z" fill="#F0F0F0"/>
<path d="M69.872 85.6081L68.8232 84.9637V21.2542L69.872 20.6211V85.6081Z" fill="#E0E0E0"/>
<path d="M71.859 17.0984L70.7881 16.4766L12.105 51.1691L13.1759 51.7966L71.859 17.0984Z" fill="#FAFAFA"/>
<path d="M12.105 51.168L13.1759 51.7955V121.474L12.105 120.847V51.168Z" fill="#E0E0E0"/>
<path d="M16.0352 83.193V84.4593L69.8717 52.5819L68.8229 51.9375L16.0352 83.193Z" fill="#FAFAFA"/>
<path d="M40.8262 37.805L41.8915 37.1719V102.159L40.8262 101.531V37.805Z" fill="#E0E0E0"/>
<path d="M43.8783 36.0039L41.8911 37.1741V102.161L43.8783 100.985V36.0039Z" fill="#F0F0F0"/>
<path d="M69.8719 52.582V54.928L15.1411 87.4102V85.0642L69.8719 52.582Z" fill="#F0F0F0"/>
<path d="M41.8916 69.1883L40.8262 68.5156L15.1582 83.7053V85.062L41.8916 69.1883Z" fill="#FAFAFA"/>
<path d="M196.551 201.587L252.871 234.849V169.234L196.551 201.587Z" fill="#E0E0E0"/>
<g opacity="0.15">
<path d="M196.551 201.587L252.871 234.849V169.234L196.551 201.587Z" fill="black"/>
</g>
<path d="M199.217 36.4023V200.063L255.521 233.319V69.659L199.217 36.4023ZM223.008 122.86L206.023 112.803V47.1939L223.008 57.2507V122.86ZM247.682 137.439L230.637 127.393V61.7787L247.682 71.8072V137.439Z" fill="#455A64"/>
<path d="M230.637 127.414L228.799 128.505L247.683 139.642V137.437L230.637 127.414Z" fill="#263238"/>
<path d="M206.023 112.828L204.18 113.919L223.008 125.061L224.847 123.97L206.023 112.828Z" fill="#263238"/>
<path d="M206.023 112.83V47.1926L204.174 46.1016L204.179 113.921L206.023 112.83Z" fill="#37474F"/>
<path d="M228.798 128.511L223.008 125.068V57.2773L228.798 60.72V128.511Z" fill="#455A64"/>
<path d="M228.799 128.51L230.637 127.419V61.7815L228.799 60.7188V128.51Z" fill="#37474F"/>
<path opacity="0.1" d="M228.799 137.574L247.683 148.705V218.599L228.799 207.462V137.574Z" fill="black"/>
<path d="M230.096 141.965L244.702 150.569V213.193L230.096 204.589V141.965Z" fill="#455A64"/>
<path d="M247.683 148.695L244.702 150.566V213.191L247.683 218.589V148.695Z" fill="#37474F"/>
<path d="M228.799 137.574L230.096 141.972V204.596L228.799 207.462V137.574Z" fill="#37474F"/>
<path d="M228.799 207.46L230.096 204.594L244.702 213.198L247.683 218.596L228.799 207.46Z" fill="#263238"/>
<path opacity="0.1" d="M204.174 122.98L223.008 134.123L223.003 204.016L204.174 192.874V122.98Z" fill="black"/>
<path d="M205.471 127.375L220.027 135.99V198.614L205.471 190.005V127.375Z" fill="#455A64"/>
<path d="M223.008 134.117L220.027 135.988V198.612L223.003 204.011L223.008 134.117Z" fill="#37474F"/>
<path d="M204.174 122.98L205.471 127.379V190.008L204.174 192.874V122.98Z" fill="#37474F"/>
<path d="M204.174 192.874L205.471 190.008L220.027 198.617L223.003 204.016L204.174 192.874Z" fill="#263238"/>
<path d="M253.815 141.605L252.871 142.165L252.866 158.208L253.815 157.649V141.605Z" fill="#E0E0E0"/>
<path d="M252.871 142.168L247.782 139.16V155.203L252.866 158.211L252.871 142.168Z" fill="#FAFAFA"/>
<path opacity="0.05" d="M247.781 143.602L249.989 144.919V147.525C249.989 147.579 249.975 147.633 249.949 147.68C249.923 147.727 249.885 147.766 249.839 147.794C249.793 147.821 249.741 147.836 249.688 147.836C249.635 147.837 249.583 147.823 249.537 147.796L247.765 146.745L247.781 143.602Z" fill="black"/>
<path d="M247.782 139.157L248.726 138.598L253.815 141.605L252.871 142.165L247.782 139.157Z" fill="#EBEBEB"/>
<path d="M250.917 144.355L248.582 145.734L247.649 144.072L249.984 142.693C250.06 142.659 250.143 142.646 250.225 142.655C250.308 142.664 250.386 142.694 250.454 142.744C250.645 142.872 250.804 143.045 250.919 143.248C251.033 143.452 251.098 143.68 251.11 143.914C251.119 143.998 251.106 144.083 251.072 144.161C251.038 144.238 250.985 144.305 250.917 144.355Z" fill="#E0E0E0"/>
<path opacity="0.1" d="M250.006 144.894L249.162 145.397V144.255L248.256 143.718L249.106 143.215L250.006 143.752V144.894Z" fill="black"/>
<path d="M248.88 144.434L248.875 146.943L239.546 141.426V138.922L248.88 144.434Z" fill="#FAFAFA"/>
<path d="M248.88 144.431L249.725 143.934V146.438L248.875 146.941L248.88 144.431Z" fill="#E0E0E0"/>
<path d="M239.546 138.917L240.396 138.414L249.725 143.931L248.88 144.429L239.546 138.917Z" fill="#EBEBEB"/>
<path d="M251.16 151.424C251.144 151.119 251.058 150.823 250.909 150.559C250.761 150.295 250.554 150.07 250.304 149.903C249.83 149.62 249.443 149.847 249.443 150.406C249.469 150.869 249.652 151.307 249.962 151.644V153.284C249.968 153.386 249.997 153.486 250.048 153.574C250.099 153.663 250.17 153.738 250.255 153.792L250.354 153.855C250.514 153.951 250.641 153.855 250.641 153.685V152.046C250.967 152.079 251.16 151.836 251.16 151.424Z" fill="#455A64"/>
<path d="M206.022 47.1914L223.007 57.2707V122.88L206.022 112.829V47.1914Z" fill="#4485FD"/>
<path opacity="0.4" d="M206.022 47.1914L223.007 57.2707V122.88L206.022 112.829V47.1914Z" fill="white"/>
<path d="M230.637 61.7773L247.682 71.8227V137.437L230.637 127.42V61.7773Z" fill="#4485FD"/>
<path opacity="0.4" d="M230.637 61.7773L247.682 71.8227V137.437L230.637 127.42V61.7773Z" fill="white"/>
<path opacity="0.2" d="M218.442 54.5622L206.022 67.2815V70.6224L220.507 55.7889L218.442 54.5622ZM210.946 50.1133L206.022 55.1558V62.0468L215.208 52.6402L210.946 50.1133ZM217.57 119.645L223.007 114.088V110.747L215.5 118.436L217.57 119.645ZM230.642 61.7585V61.9337L230.752 61.8263L230.642 61.7585ZM212.779 116.808L223.007 106.349V103.009L210.709 115.603L212.779 116.808ZM235.24 64.4663L230.642 69.1752V72.5218L237.31 65.6873L235.24 64.4663ZM242.968 68.9887L230.669 81.5836V88.4746L247.229 71.5156L242.968 68.9887ZM206.056 87.1292L223.007 69.7688V61.0632L206.022 78.4575L206.056 87.1292ZM230.669 125.677L247.715 108.221V99.5432L230.636 117.028L230.669 125.677ZM235.499 130.2L247.715 117.689V114.348L233.424 128.978L235.499 130.2ZM230.636 106.287L247.682 88.8195V85.4785L230.636 102.935V106.287ZM206.022 112.839L206.574 113.167L223.007 96.321V89.43L206.022 106.853V112.839ZM243.382 134.92L247.682 130.516V123.614L239.109 132.393L243.382 134.92ZM206.022 97.7569L223.007 80.3512V77.0103L206.022 94.4159V97.7569ZM230.636 95.2074V98.5483L247.682 81.0918V77.7396L230.636 95.2074Z" fill="white"/>
<path d="M258.214 231.725L255.532 233.313V69.6532L258.214 68.0703V231.725Z" fill="#263238"/>
<path d="M201.894 34.8086L258.215 68.0709L255.532 69.6538L199.217 36.3971L201.894 34.8086Z" fill="#37474F"/>
<path d="M199.217 200.062L196.551 201.594V34.8242L199.212 36.3958L199.217 200.062Z" fill="#E0E0E0"/>
<path d="M196.551 201.595L188.404 196.773V20.3711L261.03 63.2662V239.657L252.872 234.858V68.0882L196.557 34.8258L196.551 201.595Z" fill="#F5F5F5"/>
<path d="M188.956 21.3508L260.478 63.5958V238.687L253.424 234.532V67.7677L253.148 67.6038L196.844 34.3414L196.016 33.8553V200.619L188.972 196.453V21.3508M188.42 20.3728V196.781L196.568 201.597V34.8332L252.872 68.0956V234.859L261.03 239.659V63.2849L188.404 20.3672L188.42 20.3728Z" fill="#E0E0E0"/>
<path d="M188.404 20.371L261.03 63.266L263.647 61.7115L191.02 18.8164L188.404 20.371Z" fill="#FAFAFA"/>
<path d="M261.03 239.656V63.2655L263.647 61.7109V238.113L261.03 239.656Z" fill="#E0E0E0"/>
<path d="M115.412 189.954C115.309 189.955 115.206 189.934 115.111 189.892C115.016 189.85 114.93 189.788 114.86 189.711L87.1109 159.642L59.4116 189.603C59.2732 189.753 59.0824 189.841 58.881 189.847C58.6797 189.852 58.4843 189.776 58.3379 189.634C58.1915 189.493 58.1061 189.297 58.1004 189.091C58.0947 188.885 58.1692 188.685 58.3076 188.535L86.5589 158.009C86.6302 157.932 86.7159 157.871 86.8107 157.83C86.9056 157.788 87.0077 157.766 87.1109 157.766C87.2142 157.766 87.3163 157.788 87.4111 157.83C87.506 157.871 87.5916 157.932 87.6629 158.009L115.958 188.676C116.029 188.748 116.084 188.833 116.123 188.926C116.161 189.02 116.18 189.12 116.18 189.222C116.18 189.323 116.161 189.424 116.123 189.517C116.084 189.611 116.029 189.696 115.958 189.767C115.807 189.9 115.611 189.967 115.412 189.954Z" fill="#263238"/>
<path d="M87.1107 212.743C86.9102 212.743 86.7178 212.661 86.576 212.516C86.4342 212.371 86.3545 212.174 86.3545 211.968V162.165C86.3545 161.96 86.4342 161.763 86.576 161.617C86.7178 161.472 86.9102 161.391 87.1107 161.391C87.3113 161.391 87.5036 161.472 87.6455 161.617C87.7873 161.763 87.867 161.96 87.867 162.165V211.968C87.867 212.174 87.7873 212.371 87.6455 212.516C87.5036 212.661 87.3113 212.743 87.1107 212.743Z" fill="#37474F"/>
<path d="M117.2 194.62C117.049 194.62 116.902 194.573 116.777 194.487C116.652 194.4 116.555 194.277 116.499 194.134L101.567 155.478C101.528 155.383 101.508 155.281 101.508 155.177C101.508 155.074 101.528 154.971 101.567 154.876C101.606 154.781 101.664 154.695 101.736 154.622C101.808 154.55 101.894 154.494 101.988 154.456C102.082 154.418 102.182 154.4 102.283 154.403C102.384 154.405 102.484 154.429 102.576 154.471C102.668 154.514 102.75 154.575 102.819 154.651C102.888 154.727 102.941 154.816 102.975 154.913L117.879 193.568C117.951 193.76 117.947 193.974 117.866 194.162C117.785 194.351 117.635 194.499 117.448 194.574C117.369 194.603 117.285 194.618 117.2 194.62Z" fill="#37474F"/>
<path d="M57.0214 194.614C56.9272 194.613 56.8339 194.596 56.7454 194.563C56.5596 194.486 56.4107 194.338 56.3312 194.149C56.2516 193.961 56.2477 193.748 56.3203 193.557L71.2243 154.902C71.2542 154.799 71.3046 154.703 71.3723 154.621C71.4401 154.54 71.5237 154.473 71.6179 154.426C71.7122 154.379 71.8149 154.352 71.9196 154.348C72.0244 154.344 72.1288 154.362 72.2263 154.401C72.3239 154.441 72.4124 154.5 72.4862 154.577C72.56 154.653 72.6176 154.744 72.6552 154.844C72.6928 154.944 72.7097 155.051 72.7047 155.159C72.6998 155.266 72.6731 155.371 72.6264 155.467L57.7224 194.122C57.6665 194.266 57.57 194.39 57.4451 194.478C57.3202 194.565 57.1727 194.613 57.0214 194.614Z" fill="#37474F"/>
<path d="M116.173 188.781L118.144 194.106C118.149 194.151 118.149 194.197 118.144 194.242C118.149 194.276 118.149 194.31 118.144 194.344C118.089 194.489 117.983 194.608 117.846 194.677C117.661 194.775 117.455 194.826 117.247 194.826C117.039 194.826 116.833 194.775 116.648 194.677C116.545 194.624 116.464 194.536 116.416 194.429V194.355L114.583 189.358L116.173 188.781Z" fill="#E0E0E0"/>
<path d="M58.0533 188.781L56.0826 194.106C56.0747 194.151 56.0747 194.197 56.0826 194.242V194.344C56.1414 194.487 56.2468 194.605 56.3807 194.677C56.566 194.775 56.7713 194.826 56.9796 194.826C57.188 194.826 57.3933 194.775 57.5786 194.677C57.6812 194.622 57.7643 194.535 57.8159 194.429V194.355L59.643 189.358L58.0533 188.781Z" fill="#E0E0E0"/>
<path d="M87.9826 208.119V212.529C87.9755 212.606 87.9482 212.681 87.9035 212.745C87.8589 212.808 87.7986 212.859 87.7287 212.89C87.5383 212.99 87.3273 213.043 87.1132 213.043C86.8991 213.043 86.6881 212.99 86.4977 212.89C86.4271 212.859 86.366 212.809 86.3204 212.745C86.2748 212.682 86.2465 212.607 86.2383 212.529V208.119C86.5064 207.972 86.8061 207.895 87.1104 207.895C87.4148 207.895 87.7144 207.972 87.9826 208.119Z" fill="#E0E0E0"/>
<path d="M115.44 157.826C115.44 156.752 114.512 155.594 112.558 154.299C108.948 151.896 95.8988 144.124 90.8424 141.235C90.8401 141.224 90.8346 141.215 90.8267 141.208C90.8187 141.201 90.8088 141.196 90.7983 141.195C86.9067 138.776 84.6324 120.217 81.9387 111.472C81.7825 110.925 81.5982 110.387 81.3867 109.861C81.3867 109.821 81.3535 109.781 81.3425 109.742C81.3315 109.702 81.2376 109.51 81.1879 109.386C81.1383 109.261 81.1327 109.267 81.1107 109.211C80.6846 108.214 80.0734 107.311 79.3111 106.554C79.0516 106.297 78.7557 106.081 78.4335 105.915L76.8437 105.005C74.1996 103.382 67.962 106.831 63.6399 109.256C60.9516 110.765 58.6719 112.557 57.2643 115.898C56.5088 117.817 56.0578 119.848 55.9284 121.913C55.5475 126.526 57.0324 143.575 57.9211 150.251C59.2404 161.41 60.8688 161.427 63.2259 163.293C67.2886 166.509 78.9689 172.807 82.8274 174.362C89.8157 177.188 95.5234 172.835 99.7903 170.681C104.614 168.143 109.309 165.355 113.855 162.326C114.915 161.535 115.473 160.732 115.462 159.884C115.434 159.551 115.44 158.183 115.44 157.826Z" fill="#E0E0E0"/>
<path d="M99.7679 168.604C104.592 166.065 109.286 163.277 113.833 160.248C116.256 158.445 116.041 156.602 112.558 154.296C107.733 151.091 88.0655 139.66 88.0655 139.66C88.0655 139.66 60.4214 156.195 61.4922 158.971C62.5631 161.746 77.9529 170.328 82.805 172.284C89.7933 175.099 95.4954 170.74 99.7679 168.604Z" fill="#F5F5F5"/>
<path d="M78.4114 105.915C75.7949 104.513 69.618 107.928 65.4063 110.291C62.7125 111.806 60.4383 113.598 59.0196 116.95L57.2422 115.91C58.6387 112.569 60.9295 110.777 63.6178 109.267C67.9399 106.842 74.1775 103.394 76.8216 105.016L78.4114 105.915Z" fill="#F5F5F5"/>
<path d="M81.9382 111.471C81.8775 111.284 80.9777 108.079 79.2886 106.552C78.5068 105.823 77.4868 105.42 76.4292 105.422C74.144 105.422 68.624 108.475 65.3892 110.278L64.5944 110.741L64.2963 110.922L63.943 111.154L63.678 111.329C63.1111 111.711 62.5707 112.132 62.0607 112.59C61.9779 112.663 61.8951 112.737 61.8178 112.816C61.4926 113.124 61.1848 113.45 60.896 113.794L60.7414 113.981L60.5592 114.212L60.3826 114.45L60.2115 114.698C59.9796 115.037 59.7658 115.388 59.5712 115.75L59.4939 115.891C59.4387 115.988 59.389 116.088 59.3448 116.191C59.2731 116.338 59.2013 116.485 59.1351 116.632C58.3009 118.632 57.808 120.764 57.6778 122.935C57.054 130.516 59.5215 157.667 62.0938 159.826C62.0938 159.826 62.6458 157.565 66.8189 154.077C70.8611 150.79 75.1652 147.855 79.686 145.304C88.1868 140.397 90.7978 141.172 90.7978 141.172C86.9062 138.775 84.632 120.216 81.9382 111.471Z" fill="#EBEBEB"/>
<path d="M70.2967 217.126C70.1935 217.125 70.0914 217.103 69.9966 217.061C69.9018 217.02 69.8162 216.959 69.7447 216.883L41.9956 186.809L14.3018 216.77C14.2336 216.844 14.1519 216.904 14.0612 216.946C13.9705 216.987 13.8726 217.011 13.7732 217.014C13.6738 217.017 13.5747 217 13.4816 216.964C13.3886 216.928 13.3034 216.873 13.2309 216.804C13.1584 216.734 13.1 216.65 13.0592 216.557C13.0183 216.464 12.9956 216.364 12.9925 216.262C12.9895 216.16 13.006 216.059 13.0412 215.964C13.0764 215.868 13.1296 215.781 13.1978 215.707L41.4436 185.181C41.5141 185.103 41.5996 185.041 41.6946 185C41.7897 184.958 41.8922 184.937 41.9956 184.938C42.0991 184.937 42.2016 184.958 42.2966 185C42.3916 185.041 42.4771 185.103 42.5476 185.181L70.8487 215.848C70.9476 215.959 71.0131 216.097 71.0373 216.245C71.0615 216.394 71.0433 216.546 70.985 216.684C70.9267 216.822 70.8307 216.94 70.7086 217.023C70.5865 217.106 70.4434 217.152 70.2967 217.154V217.126Z" fill="#263238"/>
<path d="M42.0014 239.898C41.8036 239.898 41.6137 239.818 41.4724 239.677C41.331 239.535 41.2494 239.342 41.2451 239.14V189.337C41.2451 189.235 41.2647 189.135 41.3027 189.041C41.3407 188.947 41.3964 188.861 41.4666 188.789C41.5368 188.717 41.6202 188.66 41.712 188.621C41.8037 188.583 41.902 188.562 42.0014 188.562C42.1007 188.562 42.199 188.583 42.2908 188.621C42.3825 188.66 42.4659 188.717 42.5361 188.789C42.6063 188.861 42.662 188.947 42.7 189.041C42.738 189.135 42.7576 189.235 42.7576 189.337V239.14C42.7533 239.342 42.6717 239.535 42.5303 239.677C42.389 239.818 42.1991 239.898 42.0014 239.898Z" fill="#37474F"/>
<path d="M72.0907 221.764C71.9382 221.764 71.7892 221.718 71.6631 221.63C71.537 221.542 71.4398 221.417 71.3841 221.272L56.4801 182.617C56.4439 182.522 56.4261 182.422 56.4279 182.32C56.4296 182.219 56.4508 182.119 56.4903 182.026C56.5297 181.933 56.5867 181.849 56.6579 181.779C56.7291 181.709 56.8131 181.653 56.9051 181.616C56.9972 181.579 57.0955 181.561 57.1944 181.563C57.2934 181.564 57.391 181.586 57.4817 181.627C57.5724 181.667 57.6545 181.725 57.7232 181.798C57.7919 181.871 57.8459 181.957 57.8822 182.051L72.7862 220.707C72.8228 220.801 72.8408 220.902 72.8393 221.003C72.8377 221.105 72.8166 221.205 72.777 221.298C72.7375 221.391 72.6805 221.475 72.6091 221.545C72.5377 221.615 72.4534 221.67 72.3611 221.707C72.2754 221.744 72.1835 221.763 72.0907 221.764Z" fill="#37474F"/>
<path d="M11.9117 221.764C11.8168 221.764 11.7229 221.745 11.6357 221.707C11.4492 221.633 11.2992 221.485 11.2185 221.298C11.1378 221.11 11.133 220.898 11.2051 220.706L26.1091 182.051C26.1858 181.865 26.3305 181.717 26.5122 181.639C26.6939 181.56 26.8983 181.558 27.0818 181.632C27.2654 181.705 27.4135 181.85 27.4948 182.033C27.576 182.217 27.5839 182.427 27.5167 182.616L12.6127 221.272C12.5574 221.416 12.461 221.54 12.336 221.628C12.211 221.716 12.0632 221.763 11.9117 221.764Z" fill="#37474F"/>
<path d="M71.0584 215.957L73.029 221.282C73.037 221.327 73.037 221.373 73.029 221.418V221.514C72.9725 221.66 72.8667 221.78 72.7309 221.853C72.5447 221.951 72.3385 222.002 72.1292 222.002C71.92 222.002 71.7138 221.951 71.5276 221.853C71.4261 221.795 71.345 221.706 71.2957 221.599V221.525L69.4741 216.522L71.0584 215.957Z" fill="#E0E0E0"/>
<path d="M12.9386 215.957L10.968 221.282C10.9626 221.327 10.9626 221.373 10.968 221.418C10.9625 221.45 10.9625 221.482 10.968 221.514C11.0208 221.662 11.1276 221.784 11.266 221.853C11.4513 221.951 11.6566 222.002 11.865 222.002C12.0733 222.002 12.2787 221.951 12.4639 221.853C12.5671 221.798 12.6489 221.708 12.6957 221.599V221.525L14.5284 216.522L12.9386 215.957Z" fill="#E0E0E0"/>
<path d="M42.8732 235.26V239.663C42.8659 239.743 42.8381 239.819 42.7924 239.883C42.7468 239.948 42.6851 239.999 42.6138 240.031C42.4226 240.128 42.2119 240.179 41.9983 240.179C41.7847 240.179 41.574 240.128 41.3828 240.031C41.3122 239.999 41.2513 239.948 41.2066 239.883C41.1619 239.818 41.1351 239.742 41.1289 239.663V235.26C41.3971 235.112 41.6967 235.035 42.0011 235.035C42.3054 235.035 42.6051 235.112 42.8732 235.26Z" fill="#E0E0E0"/>
<path d="M70.33 184.966C70.33 183.892 69.4026 182.733 67.443 181.439C63.8329 179.036 50.7836 171.263 45.7273 168.375C45.7253 168.363 45.72 168.353 45.7121 168.345C45.7042 168.337 45.6941 168.332 45.6832 168.329C41.8192 165.916 39.5173 147.357 36.8236 138.612C36.666 138.065 36.4817 137.528 36.2716 137L36.2219 136.882L36.0673 136.526C36.0673 136.469 36.0176 136.407 35.99 136.35C35.5641 135.352 34.953 134.448 34.1905 133.688C33.9248 133.438 33.6278 133.225 33.3073 133.055C32.8712 132.8 31.9494 132.28 31.7231 132.139C29.079 130.522 22.8359 133.97 18.5192 136.396C15.831 137.905 13.5512 139.697 12.1436 143.038C11.3856 144.956 10.9346 146.987 10.8078 149.053C10.4214 153.666 11.9118 170.715 12.8005 177.391C14.1253 188.55 15.7482 188.573 18.1108 190.438C22.1735 193.655 33.8483 199.952 37.7068 201.507C44.7006 204.334 50.4028 199.981 54.6752 197.821C59.4979 195.286 64.1905 192.499 68.7347 189.472C69.8 188.68 70.352 187.878 70.341 187.03C70.3189 186.69 70.33 185.322 70.33 184.966Z" fill="#E0E0E0"/>
<path d="M54.6475 195.746C59.469 193.209 64.1615 190.422 68.707 187.397C71.1303 185.594 70.915 183.751 67.4319 181.444C62.6074 178.239 42.9396 166.809 42.9396 166.809C42.9396 166.809 15.312 183.344 16.3829 186.114C17.4538 188.884 32.8435 197.476 37.6901 199.432C44.7115 202.247 50.3971 197.906 54.6475 195.746Z" fill="#F5F5F5"/>
<path d="M33.2957 133.056C30.6792 131.649 24.5023 135.069 20.2961 137.432C17.5968 138.941 15.3005 140.739 13.9095 144.091L12.1431 143.034C13.5396 139.693 15.8304 137.901 18.5187 136.392C22.8353 133.967 29.0784 130.518 31.7225 132.135C31.9378 132.293 32.8596 132.802 33.2957 133.056Z" fill="#F5F5F5"/>
<path d="M36.8231 138.613C36.7679 138.426 35.8681 135.221 34.179 133.689C33.3922 132.965 32.3723 132.562 31.3141 132.559C29.0289 132.559 23.5089 135.611 20.2741 137.415C20.0037 137.567 19.7221 137.72 19.4793 137.878C19.3744 137.935 19.275 137.997 19.1757 138.059L18.8224 138.291C18.7326 138.344 18.646 138.402 18.5629 138.466C17.9953 138.847 17.4532 139.266 16.9401 139.721C16.8573 139.794 16.78 139.868 16.6972 139.953C16.3724 140.259 16.0664 140.586 15.7809 140.931L15.6263 141.117C15.5656 141.191 15.4993 141.27 15.4441 141.349C15.3889 141.428 15.3282 141.507 15.2675 141.586C15.2068 141.666 15.1516 141.745 15.0964 141.83C14.8627 142.17 14.6471 142.523 14.4505 142.887C14.4215 142.932 14.3957 142.979 14.3733 143.028L14.2242 143.322C14.1525 143.469 14.0862 143.622 14.0145 143.769C13.179 145.768 12.686 147.9 12.5572 150.072C11.9334 157.652 14.4009 184.804 16.9732 186.963C16.9732 186.963 17.5252 184.702 21.7038 181.214C25.7477 177.927 30.0557 174.996 34.582 172.452C43.0773 167.545 45.6882 168.314 45.6882 168.314C41.7966 165.917 39.5169 147.358 36.8231 138.613Z" fill="#EBEBEB"/>
<path d="M137.007 264.152C162.094 264.152 182.431 252.128 182.431 237.295C182.431 222.462 162.094 210.438 137.007 210.438C111.92 210.438 91.5825 222.462 91.5825 237.295C91.5825 252.128 111.92 264.152 137.007 264.152Z" fill="#E0E0E0"/>
<path d="M65.5723 255.631L52.0097 247.609C49.6361 246.207 49.6361 243.934 52.0097 242.521L93.7685 217.829C95.0994 217.138 96.5707 216.777 98.063 216.777C99.5554 216.777 101.027 217.138 102.358 217.829L115.92 225.862C118.294 227.264 118.294 229.536 115.92 230.95L74.1615 255.642C72.8297 256.331 71.3579 256.69 69.8656 256.688C68.3732 256.686 66.9024 256.324 65.5723 255.631Z" fill="#E0E0E0"/>
<path d="M107.491 172.949L97.1077 166.81H97.069L96.9917 166.765C91.8692 163.791 84.8477 164.249 77.048 168.851C61.3933 178.071 48.6973 200.604 48.6973 219.112C48.6973 228.315 51.8381 234.788 56.911 237.846L56.9883 237.891H57.0269L67.4101 244.03L69.2151 239.174C71.9682 238.449 74.6071 237.328 77.0535 235.845C92.7082 226.591 105.399 204.08 105.399 185.567C105.421 182.677 105.05 179.798 104.295 177.014L107.491 172.949Z" fill="#4485FD"/>
<path opacity="0.4" d="M107.491 172.949L97.1077 166.81H97.069L96.9917 166.765C91.8692 163.791 84.8477 164.249 77.048 168.851C61.3933 178.071 48.6973 200.604 48.6973 219.112C48.6973 228.315 51.8381 234.788 56.911 237.846L56.9883 237.891H57.0269L67.4101 244.03L69.2151 239.174C71.9682 238.449 74.6071 237.328 77.0535 235.845C92.7082 226.591 105.399 204.08 105.399 185.567C105.421 182.677 105.05 179.798 104.295 177.014L107.491 172.949Z" fill="white"/>
<path opacity="0.4" d="M48.9457 214.594C48.7871 216.096 48.7042 217.605 48.6973 219.116C48.6973 228.319 51.8381 234.792 56.911 237.85L56.9883 237.895H57.0269L67.4101 244.035L69.2151 239.179C69.8002 239.026 70.3964 238.851 71.0036 238.647L73.6808 229.184L48.9457 214.594Z" fill="#4485FD"/>
<path d="M107.592 220.416C118.662 200.782 118.661 179.558 107.591 173.013C96.5204 166.467 78.5726 177.078 67.5031 196.713C56.4336 216.348 56.4342 237.572 67.5044 244.117C78.5747 250.663 96.5225 240.051 107.592 220.416Z" fill="#4485FD"/>
<path d="M74.8839 241.487C67.8515 241.487 63.6562 235.444 63.6562 225.331C63.6562 208.587 75.6181 187.371 89.7714 179.005C93.4863 176.811 97.0909 175.652 100.204 175.652C107.237 175.652 111.432 181.69 111.432 191.809C111.432 208.547 99.47 229.763 85.3167 238.135C81.6073 240.328 77.9972 241.487 74.8839 241.487Z" fill="#4485FD"/>
<path opacity="0.15" d="M74.8839 241.487C67.8515 241.487 63.6562 235.444 63.6562 225.331C63.6562 208.587 75.6181 187.371 89.7714 179.005C93.4863 176.811 97.0909 175.652 100.204 175.652C107.237 175.652 111.432 181.69 111.432 191.809C111.432 208.547 99.47 229.763 85.3167 238.135C81.6073 240.328 77.9972 241.487 74.8839 241.487Z" fill="black"/>
<path d="M108.821 190.221C108.821 183.776 107.115 178.999 104.063 176.371C102.831 175.884 101.519 175.64 100.199 175.653C97.0854 175.653 93.4808 176.812 89.7659 179.005C75.6236 187.372 63.6562 208.604 63.6562 225.331C63.6562 231.77 65.3619 236.553 68.4145 239.181C69.6477 239.665 70.9581 239.908 72.2785 239.899C75.3918 239.899 78.9963 238.74 82.7058 236.547C96.8646 228.175 108.821 206.959 108.821 190.221Z" fill="#FAFAFA"/>
<path d="M94.8494 212.195C94.6984 212.194 94.5486 212.166 94.4078 212.11L83.0918 207.65L94.3912 185.948C94.462 185.792 94.5631 185.652 94.6883 185.537C94.8135 185.423 94.9602 185.335 95.1194 185.281C95.2787 185.226 95.4471 185.205 95.6145 185.219C95.7819 185.233 95.9447 185.282 96.093 185.363C96.2414 185.444 96.3721 185.555 96.4772 185.689C96.5823 185.823 96.6596 185.978 96.7043 186.144C96.7491 186.309 96.7604 186.483 96.7376 186.653C96.7148 186.824 96.6583 186.987 96.5716 187.135L86.6356 206.315L95.2965 209.735C95.5661 209.842 95.7907 210.042 95.9314 210.3C96.0722 210.558 96.1202 210.859 96.0671 211.15C96.0139 211.441 95.8631 211.703 95.6406 211.892C95.4182 212.081 95.1383 212.184 94.8494 212.183V212.195Z" fill="#37474F"/>
<path d="M84.9361 211.756C86.1125 210.971 87.0914 209.912 87.7935 208.667C88.4955 207.421 88.9009 206.024 88.9768 204.588C88.9768 201.948 87.1662 200.88 84.9361 202.197C83.7594 202.983 82.7803 204.042 82.0782 205.289C81.3761 206.535 80.9709 207.934 80.8955 209.37C80.8955 211.993 82.7061 213.079 84.9361 211.756Z" fill="#455A64"/>
<path d="M84.9357 232.343C84.6045 232.541 84.334 232.343 84.334 231.942V227.069C84.3397 226.845 84.3972 226.626 84.5018 226.429C84.6064 226.233 84.7551 226.064 84.9357 225.938C85.2669 225.746 85.5373 225.938 85.5373 226.345V231.213C85.5321 231.436 85.4748 231.656 85.3701 231.852C85.2655 232.049 85.1165 232.217 84.9357 232.343Z" fill="#4485FD"/>
<path d="M84.8862 189.732C84.555 189.929 84.29 189.732 84.29 189.33V184.452C84.2947 184.228 84.3511 184.009 84.4548 183.813C84.5585 183.616 84.7063 183.448 84.8862 183.321C85.2174 183.129 85.4879 183.321 85.4879 183.728V188.601C85.4822 188.825 85.4247 189.044 85.3201 189.241C85.2155 189.437 85.0668 189.605 84.8862 189.732Z" fill="#4485FD"/>
<path d="M64.7603 219.976C64.7764 219.756 64.8434 219.543 64.9557 219.354C65.0679 219.165 65.2223 219.007 65.4062 218.891L69.5517 216.455C69.9105 216.245 70.192 216.392 70.192 216.782C70.1746 217.002 70.1071 217.215 69.995 217.404C69.8828 217.592 69.7291 217.751 69.5462 217.868L65.4283 220.304C65.0419 220.519 64.7548 220.372 64.7603 219.976Z" fill="#4485FD"/>
<path d="M100.596 198.748C100.613 198.528 100.681 198.315 100.793 198.126C100.905 197.938 101.059 197.779 101.242 197.662L105.365 195.22C105.718 195.011 106.005 195.158 106 195.554C105.984 195.774 105.917 195.987 105.804 196.176C105.692 196.365 105.538 196.523 105.354 196.639L101.236 199.075C100.883 199.285 100.596 199.138 100.596 198.748Z" fill="#4485FD"/>
<path d="M113.668 226.515C114.22 218.648 113.315 210.004 113.933 197.728C113.988 194.583 114.098 191.213 114.297 188.213C114.976 178.142 116.455 174.696 116.588 172.752C116.588 172.752 117.317 153.439 117.94 131.393C118.238 121.019 121.098 117.881 123.383 112.375H150.541C153.577 125.957 154.439 155.585 154.35 169.584C154.301 176.72 151.563 214.906 151.507 215.782C151.314 218.898 151.574 220.128 152.733 221.439C155.167 224.183 158.695 226.8 161.742 229.19C161.3 230.414 157.635 230.35 155.819 229.439C153.438 228.137 151.17 226.619 149.04 224.903C146.534 222.953 143.332 221.387 143.288 218.422C143.277 218.244 143.249 218.067 143.205 217.894C143.161 216.154 139.341 190.627 138.999 184.692C138.723 179.592 139.314 170.948 139.314 170.948L136.184 149.36C136.184 149.36 133.783 165.75 131.834 174.464C130.244 181.553 127.622 193.655 125.839 202.381C124.123 212.441 121.655 222.211 121.219 227.246C121.092 228.447 119.795 240.242 119.26 242.945C118.724 245.649 113.16 245.724 112.774 241.083C112.536 237.979 113.569 227.995 113.668 226.515Z" fill="#9E6767"/>
<path d="M166.929 232.323C167.084 232.323 167.338 234.115 166.504 234.887C165.538 235.78 162.701 237.26 158.925 236.79C155.15 236.32 153.096 235.119 151.573 233.808C150.049 232.497 147.919 230.646 146.207 230.275C144.618 229.921 142.895 229.19 142.377 228.679C141.858 228.169 141.913 225.883 141.913 225.883L166.929 232.323Z" fill="#263238"/>
<path d="M143.139 217.047C143.139 217.047 142.852 217.047 142.763 217.592C142.653 218.225 142.548 220.058 142.305 221.073C141.936 222.901 141.83 224.776 141.991 226.637C142.211 227.797 144.806 228.592 146.462 229.236C148.412 230.105 150.227 231.278 151.844 232.717C153.632 234.237 157.364 235.734 159.831 235.745C163.585 235.745 166.003 234.66 166.742 233.239C167.653 231.499 166.913 230.466 162.58 228.412C161.758 228.023 158.876 226.277 157.894 225.639C156.85 224.971 155.86 224.215 154.935 223.376C154.468 222.953 154.023 222.501 153.605 222.025C153.169 221.6 152.797 221.109 152.501 220.568C152.451 220.452 152.418 220.313 152.374 220.186C152.246 219.844 152.148 219.49 152.081 219.13C152.009 218.753 151.96 218.207 151.612 217.969C151.124 217.764 150.591 217.703 150.072 217.795C149.515 217.844 148.961 217.933 148.416 218.062C147.781 218.219 147.052 218.288 146.683 218.915C146.434 219.424 146.317 219.992 146.34 220.563C146.34 220.83 146.34 221.096 146.34 221.357C146.34 221.473 146.39 221.677 146.241 221.63C146.092 221.584 145.932 221.195 145.877 221.05C145.755 220.76 145.672 220.441 145.54 220.151C145.391 219.813 145.205 219.494 144.988 219.199C144.786 218.929 144.555 218.686 144.298 218.474C144.04 218.327 143.791 218.162 143.553 217.981C143.333 217.717 143.189 217.393 143.139 217.047Z" fill="#37474F"/>
<path d="M163.281 228.785C157.85 229.238 156.177 232.782 155.967 234.964C157.208 235.442 158.511 235.716 159.831 235.776C163.585 235.776 166.157 234.691 166.897 233.27C167.752 231.605 167.145 230.276 163.281 228.785Z" fill="#FAFAFA"/>
<path d="M155.139 228.937C155.078 228.941 155.017 228.92 154.968 228.879C154.941 228.856 154.918 228.827 154.901 228.795C154.885 228.763 154.874 228.727 154.871 228.69C154.867 228.654 154.87 228.617 154.88 228.581C154.891 228.546 154.907 228.513 154.93 228.485C155.555 227.79 156.315 227.245 157.157 226.885C158 226.524 158.906 226.358 159.815 226.396C159.851 226.399 159.886 226.41 159.919 226.428C159.951 226.446 159.979 226.47 160.003 226.499C160.026 226.529 160.044 226.563 160.055 226.599C160.065 226.636 160.069 226.674 160.066 226.712C160.063 226.75 160.052 226.787 160.036 226.821C160.019 226.855 159.996 226.885 159.968 226.91C159.94 226.934 159.907 226.953 159.873 226.964C159.838 226.975 159.801 226.98 159.765 226.976C158.945 226.95 158.129 227.104 157.369 227.427C156.609 227.751 155.921 228.237 155.349 228.856C155.322 228.885 155.289 228.907 155.253 228.921C155.217 228.936 155.178 228.941 155.139 228.937Z" fill="#F0F0F0"/>
<path d="M152.782 227.527C152.722 227.529 152.664 227.508 152.616 227.469C152.562 227.423 152.526 227.355 152.518 227.281C152.51 227.208 152.529 227.134 152.572 227.075C153.198 226.379 153.958 225.833 154.802 225.473C155.646 225.113 156.553 224.947 157.463 224.986C157.5 224.986 157.537 224.993 157.571 225.009C157.606 225.024 157.636 225.047 157.662 225.076C157.687 225.104 157.706 225.138 157.718 225.176C157.73 225.213 157.734 225.252 157.731 225.291C157.727 225.33 157.716 225.368 157.698 225.402C157.679 225.436 157.654 225.465 157.624 225.489C157.595 225.512 157.56 225.528 157.524 225.537C157.487 225.545 157.45 225.545 157.413 225.537C156.593 225.513 155.777 225.668 155.017 225.993C154.257 226.317 153.569 226.804 152.997 227.423C152.972 227.457 152.94 227.485 152.902 227.503C152.865 227.521 152.823 227.53 152.782 227.527Z" fill="#F0F0F0"/>
<path d="M150.602 225.921C150.54 225.923 150.48 225.902 150.43 225.863C150.376 225.817 150.34 225.749 150.332 225.675C150.324 225.602 150.343 225.528 150.386 225.469C151.013 224.775 151.774 224.23 152.617 223.87C153.461 223.509 154.367 223.343 155.277 223.38C155.312 223.383 155.346 223.393 155.377 223.41C155.408 223.427 155.436 223.45 155.458 223.478C155.481 223.506 155.498 223.538 155.508 223.573C155.519 223.608 155.523 223.645 155.52 223.682C155.517 223.719 155.507 223.755 155.491 223.788C155.475 223.82 155.452 223.849 155.425 223.873C155.397 223.896 155.366 223.913 155.332 223.923C155.298 223.933 155.262 223.936 155.227 223.931C154.407 223.908 153.591 224.063 152.831 224.388C152.071 224.712 151.383 225.199 150.811 225.817C150.787 225.851 150.755 225.878 150.719 225.896C150.682 225.915 150.642 225.923 150.602 225.921Z" fill="#F0F0F0"/>
<path d="M148.488 224.304C148.428 224.305 148.369 224.284 148.322 224.246C148.267 224.201 148.23 224.135 148.221 224.062C148.212 223.989 148.23 223.915 148.272 223.857C149.299 222.464 151.64 221.536 153.616 221.733C153.652 221.737 153.687 221.748 153.719 221.766C153.752 221.783 153.78 221.807 153.804 221.837C153.827 221.866 153.845 221.9 153.855 221.937C153.866 221.973 153.87 222.012 153.867 222.05C153.864 222.088 153.853 222.125 153.836 222.159C153.82 222.193 153.796 222.223 153.769 222.247C153.741 222.272 153.708 222.29 153.674 222.301C153.639 222.313 153.602 222.317 153.566 222.314C151.789 222.134 149.603 222.992 148.692 224.228C148.665 224.256 148.633 224.277 148.598 224.29C148.563 224.303 148.525 224.308 148.488 224.304Z" fill="#F0F0F0"/>
<path d="M121.031 245.053C120.882 247.744 120.479 249.531 119.574 251.109C118.669 252.687 116.952 253.181 115.213 252.722C113.474 252.264 111.255 251.022 110.753 248.702C110.251 246.381 109.969 244.786 110.361 242.285L121.031 245.053Z" fill="#263238"/>
<path d="M113.712 225.551C113 225.609 112.784 229.223 112.376 232.843C111.934 236.725 110.83 238.332 110.433 241.511C109.98 245.149 110.554 246.767 111.769 248.966C112.983 251.165 117.289 253.323 119.381 250.173C121.103 247.608 121.175 244.76 121.037 241.134C120.945 238.065 121.022 234.992 121.269 231.933C121.407 229.212 121.981 226.467 121.357 226.166C121.307 226.566 121.263 227.071 121.213 227.465C121.189 227.956 121.111 228.443 120.982 228.916C120.91 229.119 120.75 229.333 120.684 229.003C120.65 228.778 120.65 228.549 120.684 228.324C120.788 227.32 120.308 227.239 120.049 227.164C118.954 226.936 117.848 226.772 116.737 226.67C116.185 226.63 114.302 226.543 114.054 226.874C113.894 227.198 113.813 227.558 113.817 227.924C113.756 228.469 113.634 228.869 113.618 228.695C113.585 228.307 113.657 227.285 113.668 227.042C113.679 226.798 113.712 226.462 113.717 226.247C113.723 226.032 113.712 225.783 113.712 225.551Z" fill="#37474F"/>
<path d="M110.251 243.615C110.121 245.56 110.592 247.497 111.592 249.138C112.801 251.337 117.438 253.501 119.552 250.351C120.606 248.785 120.888 246.934 121.031 245.043C119.784 242.617 112.249 241.55 110.251 243.615Z" fill="#FAFAFA"/>
<path d="M119.47 241.082C119.44 241.088 119.41 241.088 119.381 241.082C119.354 241.082 116.042 239.626 112.818 240.409C112.783 240.422 112.746 240.427 112.709 240.423C112.672 240.42 112.637 240.408 112.604 240.389C112.572 240.371 112.544 240.345 112.522 240.314C112.499 240.283 112.483 240.248 112.475 240.21C112.466 240.172 112.465 240.133 112.472 240.095C112.479 240.057 112.493 240.02 112.514 239.988C112.535 239.956 112.562 239.929 112.593 239.909C112.625 239.888 112.66 239.875 112.696 239.87C116.108 239.04 119.486 240.514 119.613 240.578C119.676 240.61 119.724 240.667 119.747 240.737C119.769 240.807 119.765 240.883 119.734 240.949C119.708 240.997 119.669 241.035 119.622 241.059C119.574 241.083 119.521 241.091 119.47 241.082Z" fill="#F0F0F0"/>
<path d="M112.977 237.693C112.926 237.688 112.877 237.667 112.837 237.633C112.797 237.599 112.767 237.553 112.751 237.502C112.73 237.432 112.735 237.356 112.766 237.29C112.797 237.224 112.851 237.173 112.917 237.148C116.129 235.988 119.69 237.728 119.822 237.792C119.875 237.832 119.913 237.89 119.928 237.957C119.943 238.024 119.935 238.094 119.905 238.155C119.874 238.216 119.824 238.263 119.763 238.288C119.703 238.313 119.635 238.314 119.574 238.291C119.546 238.291 116.074 236.608 113.088 237.676C113.053 237.691 113.015 237.697 112.977 237.693Z" fill="#F0F0F0"/>
<path d="M113.094 235.135C113.044 235.13 112.996 235.111 112.956 235.079C112.916 235.047 112.885 235.004 112.867 234.955C112.855 234.921 112.849 234.884 112.851 234.847C112.852 234.81 112.861 234.774 112.876 234.74C112.89 234.707 112.912 234.677 112.938 234.652C112.964 234.627 112.994 234.608 113.027 234.596C116.555 233.267 119.938 235.141 120.06 235.222C120.12 235.261 120.163 235.323 120.179 235.395C120.196 235.466 120.185 235.542 120.148 235.605C120.112 235.668 120.053 235.713 119.984 235.731C119.916 235.748 119.844 235.736 119.784 235.698C119.756 235.698 116.472 233.888 113.209 235.118C113.172 235.132 113.133 235.138 113.094 235.135Z" fill="#F0F0F0"/>
<path d="M113.264 232.622C113.216 232.615 113.17 232.595 113.131 232.563C113.093 232.532 113.062 232.49 113.044 232.443C113.031 232.408 113.025 232.372 113.026 232.335C113.028 232.298 113.035 232.262 113.05 232.229C113.064 232.195 113.085 232.165 113.11 232.14C113.136 232.115 113.166 232.096 113.198 232.083C116.51 230.783 120.142 232.704 120.28 232.785C120.341 232.822 120.386 232.883 120.404 232.955C120.423 233.027 120.414 233.103 120.38 233.168C120.362 233.199 120.339 233.227 120.311 233.249C120.283 233.271 120.251 233.288 120.217 233.297C120.183 233.306 120.148 233.308 120.113 233.303C120.079 233.298 120.045 233.285 120.015 233.266C119.982 233.266 116.455 231.392 113.391 232.605C113.351 232.62 113.307 232.626 113.264 232.622Z" fill="#EBEBEB"/>
<path d="M120.612 112.373C117.625 120.1 116.599 124.492 116.273 142.831C115.947 161.17 115.98 169.112 115.909 171.323C115.837 173.533 114.617 177.484 113.541 188.379C112.464 199.275 113.452 212.021 113.452 212.021C113.452 212.021 114.479 213.999 118.42 214.341C122.074 214.69 123.885 213.245 123.885 213.245C123.885 213.245 128.897 192.034 130.288 185.479C131.679 178.923 136.173 153.715 136.173 153.715L138.563 171.207C138.563 171.207 137.459 177.217 138.563 186.772C139.667 196.327 141.643 206.103 141.643 206.103C143.447 206.765 145.346 207.093 147.257 207.072C148.987 207.1 150.691 206.631 152.186 205.714C152.186 205.714 155.288 177.287 155.288 166.473C155.288 155.658 155.161 128.368 151.916 112.344L120.612 112.373Z" fill="#455A64"/>
<path d="M131.287 174.43C131.287 174.43 129.714 172.04 125.85 171.529C121.986 171.019 119.982 173.241 119.982 173.241C119.982 173.241 127.152 172.469 131.287 174.43ZM119.546 174.865C124.514 175.904 126.799 175.689 129.073 175.213C129.073 175.213 121.908 174.262 119.546 174.865Z" fill="#9E6767"/>
<path d="M155.26 169.331L155.294 168.17C151.982 167.706 146.666 168.838 145.242 169.696C148.561 169.214 151.918 169.091 155.26 169.331ZM147.604 171.042C149.812 171.669 155.145 171.953 155.145 171.953L155.2 170.851C155.2 170.851 151.402 170.729 147.604 171.042Z" fill="#9E6767"/>
<path d="M114.424 213.032C114.597 213.17 114.782 213.293 114.976 213.398C113.965 196.283 115.991 186.455 117.338 179.905C117.471 179.273 117.592 178.675 117.708 178.107C118.729 172.984 119.187 162.704 119.171 154.286C119.171 151.75 119.171 149.134 119.171 146.349C119.171 143.094 119.287 139.724 119.541 136.393C125.221 135.68 126.452 129.785 128.003 122.348C128.212 121.327 128.435 120.277 128.671 119.198L128.168 119.076C127.931 120.155 127.71 121.211 127.495 122.232C125.944 129.687 124.801 135.1 119.585 135.825C120.203 128.283 121.688 120.921 125.221 115.618L124.801 115.305C119.541 123.195 118.729 135.425 118.652 146.343C118.652 149.128 118.652 151.75 118.652 154.286C118.652 162.675 118.21 172.932 117.2 177.997L116.836 179.789C115.478 186.316 113.463 196.086 114.424 213.032ZM139.457 132.924L136.194 153.746L138.585 171.238L138.27 154.245L140.478 141.336C140.561 142.619 140.649 143.936 140.732 145.276C141.455 156.345 142.266 168.888 141.72 171.528C140.207 178.762 140.649 183.328 141.455 191.619C141.538 192.46 141.626 193.359 141.714 194.264C142.156 198.946 142.647 203.547 142.978 206.558L143.53 206.685C143.199 203.68 142.697 198.993 142.244 194.212C142.156 193.284 142.073 192.408 141.99 191.567C141.19 183.334 140.748 178.803 142.239 171.644C142.791 168.929 142.024 156.885 141.267 145.241C141.129 143.123 140.997 141.081 140.875 139.132L141.505 135.465C143.989 134.839 149.459 131.804 150.188 128.202C146.346 132.408 139.457 132.924 139.457 132.924Z" fill="#37474F"/>
<path d="M167.653 103.264C167.239 103.027 166.461 103.746 165.445 104.761C165.191 105.012 164.994 105.319 164.868 105.661C164.742 106.002 164.69 106.369 164.717 106.734C165.422 106.596 166.061 106.209 166.527 105.637C167.07 104.947 167.456 104.135 167.653 103.264Z" fill="#263238"/>
<path d="M170.016 111.576C169.618 111.442 169.464 111.263 170.016 110.723C170.568 110.183 172.389 108.797 172.389 108.797L172.847 109.609C172.847 109.609 170.706 111.738 170.016 111.576Z" fill="black"/>
<path d="M181.734 98.4233C181.475 97.2281 180.227 96.3463 177.975 95.0293L177.914 94.9945L177.6 94.8089C173.863 92.8015 155.476 84.0585 152.5 82.8576C150.222 81.8471 147.816 81.1923 145.357 80.9141L149.481 96.1664C149.481 96.1664 163.143 100.663 168.801 102.49C167.25 104.422 165.732 106.29 164.335 106.963L169.855 111.877C171.081 109.887 178.533 105.896 180.183 103.175C181.359 101.179 181.983 99.5894 181.734 98.4233Z" fill="#9E6767"/>
<path d="M176.231 96.3487C172.467 95.9252 169.348 99.3191 167.879 101.089C167.73 101.268 167.421 101.669 167.173 101.97L168.763 102.487C168.845 102.388 169.475 101.512 169.867 100.961C171.384 98.6615 173.647 97.0219 176.231 96.3487Z" fill="#874C4C"/>
<path d="M169.381 107.532C168.757 106.952 167.233 105.484 166.262 105.913C164.738 106.592 164.021 107.23 161.73 108.356C160.074 109.174 158.059 110.265 157.623 110.804C156.519 112.185 156.894 115.712 157.336 117.186C157.387 117.374 157.477 117.549 157.598 117.697C157.72 117.845 157.87 117.964 158.04 118.045C158.21 118.126 158.394 118.168 158.58 118.167C158.766 118.166 158.95 118.122 159.119 118.039C159.251 118.346 159.621 119.008 160.775 118.758C160.863 119.216 161.531 119.768 162.563 119.547C162.696 120.052 163.623 120.232 164.247 119.93C165.114 119.524 166.013 118.224 166.56 117.731C167.106 117.238 167.366 117.052 167.377 116.745C167.377 116.327 166.952 115.904 166.223 115.973C167.083 115.722 167.851 115.207 168.431 114.494C168.877 113.842 169.248 113.137 169.535 112.394C169.758 111.774 170.098 111.208 170.534 110.729C171.34 109.777 170.137 108.35 169.485 107.683L169.381 107.532Z" fill="#9E6767"/>
<path d="M166.24 115.988C165.989 116.126 165.754 116.293 165.539 116.487C165.437 116.586 165.344 116.694 165.263 116.812C165.175 116.928 165.114 117.056 165.015 117.183L164.965 117.247L164.899 117.212C164.471 117.036 164.009 116.971 163.552 117.021C164.01 116.826 164.523 116.826 164.981 117.021H164.866C165.013 116.761 165.199 116.528 165.418 116.331C165.667 116.159 165.947 116.043 166.24 115.988Z" fill="#874C4C"/>
<path d="M164.64 118.448C164.695 118.21 164.772 118.007 164.816 117.792C164.87 117.573 164.91 117.35 164.938 117.125C165.044 117.346 165.068 117.6 165.004 117.839C164.949 118.078 164.821 118.292 164.64 118.448Z" fill="#874C4C"/>
<path d="M162.58 119.564C162.311 118.987 162.152 118.36 162.111 117.719C162.048 117.079 162.106 116.433 162.282 115.816C162.244 116.445 162.253 117.075 162.309 117.702C162.351 118.329 162.441 118.952 162.58 119.564Z" fill="#874C4C"/>
<path d="M160.792 118.779C160.54 118.057 160.375 117.305 160.301 116.539C160.211 115.766 160.243 114.982 160.395 114.219C160.384 114.98 160.417 115.742 160.494 116.499C160.56 117.276 160.687 118.025 160.792 118.779Z" fill="#874C4C"/>
<path d="M159.119 118.083C158.462 116.635 158.328 114.985 158.744 113.441C158.678 114.213 158.678 114.99 158.744 115.762C158.805 116.545 158.931 117.322 159.119 118.083Z" fill="#874C4C"/>
<path d="M158.843 112.204C158.83 112.006 158.862 111.807 158.937 111.624C159.015 111.445 159.13 111.286 159.273 111.16C159.57 110.94 159.913 110.801 160.272 110.754C160.118 110.853 159.963 110.94 159.814 111.027C159.663 111.108 159.521 111.205 159.389 111.317C159.124 111.546 158.933 111.856 158.843 112.204Z" fill="#874C4C"/>
<path d="M160.554 112.915C160.536 112.717 160.566 112.517 160.642 112.335C160.72 112.154 160.838 111.995 160.985 111.871C161.277 111.647 161.619 111.508 161.978 111.465L161.52 111.732C161.372 111.817 161.229 111.914 161.095 112.022C160.831 112.253 160.642 112.566 160.554 112.915Z" fill="#874C4C"/>
<path d="M162.624 113.896C162.606 113.698 162.636 113.498 162.713 113.316C162.791 113.135 162.908 112.976 163.055 112.851C163.348 112.63 163.69 112.49 164.049 112.445C163.894 112.544 163.739 112.631 163.59 112.718C163.439 112.799 163.297 112.896 163.165 113.008C162.899 113.235 162.709 113.546 162.624 113.896Z" fill="#874C4C"/>
<path d="M171.269 103.768L168.95 102.95C168.687 102.873 168.409 102.862 168.141 102.918C167.872 102.975 167.62 103.097 167.405 103.275L165.567 104.975C165.486 105.035 165.423 105.117 165.383 105.212C165.344 105.307 165.329 105.411 165.34 105.514C165.34 105.636 165.451 106.094 165.478 106.228C165.506 106.327 165.559 106.416 165.631 106.486C165.703 106.557 165.791 106.606 165.887 106.628L168.205 107.452C168.469 107.529 168.746 107.539 169.015 107.483C169.283 107.426 169.535 107.305 169.751 107.127L171.583 105.421C171.662 105.364 171.725 105.287 171.767 105.196C171.809 105.106 171.827 105.005 171.821 104.905C171.821 104.772 171.705 104.325 171.677 104.174C171.65 104.074 171.598 103.984 171.526 103.912C171.454 103.841 171.365 103.791 171.269 103.768Z" fill="#37474F"/>
<path d="M165.567 104.975L167.405 103.275C167.62 103.097 167.872 102.975 168.141 102.918C168.409 102.862 168.687 102.873 168.95 102.95L171.269 103.768C171.369 103.78 171.464 103.826 171.538 103.898C171.613 103.97 171.664 104.064 171.684 104.169C171.704 104.273 171.692 104.381 171.651 104.478C171.609 104.575 171.539 104.655 171.451 104.708L169.613 106.408C169.398 106.586 169.145 106.708 168.877 106.764C168.608 106.821 168.331 106.81 168.067 106.733L165.749 105.915C165.648 105.902 165.554 105.857 165.48 105.785C165.405 105.713 165.354 105.618 165.334 105.514C165.314 105.41 165.325 105.301 165.367 105.205C165.409 105.108 165.479 105.027 165.567 104.975Z" fill="#455A64"/>
<path d="M168.834 106.525C168.606 106.587 168.367 106.587 168.139 106.525L165.82 105.707C165.671 105.655 165.578 105.573 165.561 105.481C165.544 105.388 165.6 105.283 165.721 105.173L167.554 103.473C167.736 103.32 167.953 103.216 168.183 103.172C168.411 103.109 168.65 103.109 168.879 103.172L171.197 103.99C171.346 104.042 171.44 104.123 171.456 104.216C171.473 104.309 171.418 104.413 171.296 104.523L169.464 106.223C169.281 106.377 169.065 106.481 168.834 106.525Z" fill="#263238"/>
<path d="M167.808 107.058H167.769L166.113 106.478C166.103 106.474 166.094 106.469 166.086 106.462C166.078 106.455 166.072 106.446 166.067 106.436C166.063 106.427 166.06 106.416 166.059 106.405C166.059 106.394 166.06 106.383 166.063 106.373C166.07 106.352 166.084 106.334 166.102 106.323C166.121 106.313 166.142 106.31 166.163 106.315L167.819 106.895C167.829 106.898 167.839 106.903 167.847 106.91C167.856 106.916 167.862 106.925 167.867 106.935C167.872 106.945 167.875 106.956 167.875 106.967C167.875 106.979 167.873 106.99 167.868 107C167.864 107.014 167.856 107.027 167.845 107.037C167.834 107.047 167.822 107.054 167.808 107.058Z" fill="#455A64"/>
<path d="M169.762 106.681C170.109 106.791 170.866 107.29 171.191 108.747C171.517 110.203 170.788 111.41 169.999 111.578C170.281 111.775 170.949 111.485 171.771 110.835L172.455 110.296C172.728 110.083 172.946 109.802 173.091 109.48C173.235 109.157 173.301 108.801 173.283 108.445C173.272 108.226 173.241 108.008 173.19 107.795C173.107 107.241 172.913 106.712 172.621 106.243C172.329 105.774 171.945 105.375 171.495 105.074L169.762 106.681Z" fill="#263238"/>
<path d="M116.472 125.661C117.741 119.581 119.673 110.617 119.717 109.271C119.905 103.829 118.569 99.7741 118.089 96.3918C117.04 89.018 119.668 82.8277 121.302 81.3715C121.302 81.3715 123.002 80.9654 125.028 80.4549C126.181 80.1607 127.349 79.9398 128.527 79.7935C131.636 79.3358 134.784 79.2463 137.911 79.5266C138.673 79.6078 142.278 80.2576 142.278 80.2576C143.382 80.5245 145.363 80.9074 145.369 80.9074C147.301 82.7804 148.916 84.9856 150.144 87.4284C151.921 90.7701 152.799 93.5665 152.561 100.726C152.495 102.878 152.412 106.724 152.495 109.793C152.666 116.367 153.141 119.076 153.936 125.04C146.765 129.681 128.676 131.822 116.472 125.661Z" fill="#263238"/>
<path d="M129.08 75.7252C129.62 75.5849 130.147 75.3906 130.653 75.145C131.383 74.7494 132.194 74.55 133.015 74.5648C134.026 74.6751 134.854 75.3887 135.814 75.6613C136.356 75.8011 136.919 75.8248 137.47 75.7309C137.812 75.6787 138.138 75.5627 138.475 75.4815C139.025 75.3415 139.596 75.3081 140.158 75.3829C140.731 75.5193 141.325 75.5193 141.897 75.3829C142.791 75.058 143.305 74.0485 144.166 73.6424C145.126 73.1783 146.263 73.5786 147.301 73.3755C147.767 73.2693 148.205 73.0589 148.586 72.7585C148.967 72.4582 149.282 72.0749 149.509 71.635C149.954 70.7446 150.127 69.7318 150.006 68.7342C149.849 68.0616 149.849 67.3589 150.006 66.6863C150.209 66.2671 150.482 65.8898 150.812 65.5724C151.414 64.8762 151.916 63.9189 151.634 63.0255C151.391 62.2423 150.591 61.6969 150.53 60.8731C150.529 60.6837 150.568 60.4965 150.645 60.3249C150.721 60.1534 150.833 60.0019 150.972 59.8814C151.111 59.7609 151.274 59.6743 151.448 59.6281C151.623 59.5819 151.805 59.5771 151.982 59.6141C152.153 59.6727 152.31 59.7698 152.442 59.8986C152.573 60.0274 152.677 60.1848 152.744 60.36C152.812 60.5351 152.843 60.7236 152.834 60.9124C152.825 61.1013 152.778 61.2858 152.694 61.4533C153.075 61.1992 153.398 60.8591 153.639 60.4577C153.879 60.0563 154.032 59.6037 154.085 59.1326C154.027 58.319 153.666 57.5622 153.081 57.0266C152.529 56.4465 151.91 55.9766 151.425 55.35C151.166 55.0075 150.978 54.6124 150.873 54.1897C150.822 53.9833 150.801 53.7701 150.812 53.5573C150.812 53.1802 150.977 52.8089 151.033 52.4318C151.129 51.6567 150.96 50.8708 150.556 50.2148C150.151 49.5589 149.537 49.0758 148.825 48.8522C148.052 48.6375 147.124 48.6956 146.617 48.0574C146.236 47.5933 146.225 46.8971 146.009 46.3517C145.457 44.9071 143.575 44.472 142.19 45.0406C141.505 45.319 140.815 45.7948 140.103 45.6207C139.622 45.4347 139.189 45.1327 138.839 44.7389C138.191 44.1708 137.44 43.7483 136.631 43.4973C136.228 43.3708 135.814 43.2873 135.394 43.2479C135.185 43.2479 134.975 43.2479 134.765 43.2479C134.606 43.266 134.445 43.2757 134.285 43.2769C134.15 43.2528 134.013 43.2373 133.876 43.2305C133.703 43.2322 133.53 43.2458 133.358 43.2711C132.675 43.3666 132.018 43.6053 131.426 43.9731C130.944 44.2685 130.514 44.6493 130.156 45.0986C129.916 45.4448 129.648 45.769 129.356 46.0674C128.566 46.7694 127.44 46.7578 126.413 46.8913C125.225 47.0184 124.09 47.4793 123.129 48.2256C122.657 48.6059 122.266 49.0857 121.981 49.6342C121.696 50.1827 121.523 50.7878 121.473 51.4107C121.522 51.9681 121.456 52.53 121.28 53.0584C121.06 53.4251 120.743 53.7172 120.369 53.8996C119.503 54.3131 118.659 54.7759 117.841 55.2862C117.434 55.5477 117.097 55.9141 116.862 56.3506C116.628 56.7872 116.503 57.2794 116.5 57.7808C116.566 58.6221 117.118 59.3183 117.604 60.0087C118.089 60.699 118.492 61.5519 118.249 62.3583C118.026 62.8398 117.76 63.2982 117.454 63.7275C117.175 64.3206 117.129 65.0057 117.326 65.6344C117.523 66.2631 117.948 66.7848 118.509 67.0866C119.221 67.4347 120.231 67.5275 120.435 68.3223C120.464 68.7813 120.402 69.2416 120.253 69.6741C120.032 71.0375 121.28 72.2848 122.588 72.4705C123.322 72.5807 124.15 72.4705 124.741 72.9404C125.243 73.3465 125.403 74.0659 125.757 74.6229C126.113 75.173 126.653 75.5623 127.269 75.7135C127.567 75.789 127.882 75.7426 128.174 75.8238C128.479 75.8593 128.788 75.8256 129.08 75.7252Z" fill="#263238"/>
<path d="M128.869 77.5363C128.869 76.3296 128.726 70.2669 128.726 70.2669C128.676 70.7194 126.579 71.9494 124.713 69.6113C122.847 67.2733 122.726 64.7844 123.852 63.2296C125.094 61.4891 128.34 61.5297 128.649 64.4827C130.261 64.4189 131.039 63.6879 130.399 60.8974C130.542 59.2729 132.055 58.5767 132.485 55.9718C132.629 54.9799 133.09 54.0691 133.792 53.3898C134.495 52.7106 135.397 52.3034 136.349 52.2356C137.112 52.1722 137.879 52.2882 138.594 52.5752C139.309 52.8622 139.955 53.313 140.484 53.8948C140.677 53.4986 140.951 53.1524 141.287 52.8815C141.623 52.6105 142.012 52.4216 142.427 52.3284C143.475 52.1817 144.537 52.4598 145.397 53.1064C146.257 53.7529 146.851 54.7193 147.058 55.8094C147.622 58.6074 147.86 61.4675 147.764 64.3261C147.538 70.7601 145.893 73.8639 143.934 74.943C142.614 75.6624 141.427 75.8306 139.137 75.6276L139.236 77.6465C139.28 78.6618 139.192 79.387 140.13 79.7409C140.754 79.9614 142.244 80.2631 142.244 80.2631C142.244 80.2631 144.425 84.2197 138.419 84.5736C128.847 85.1538 125.011 80.4603 125.011 80.4603L127.131 79.7757C128.693 79.2536 128.858 78.7488 128.869 77.5363Z" fill="#9E6767"/>
<path d="M140.467 68.6039C140.311 68.3914 140.094 68.2369 139.849 68.163C139.629 68.0948 139.404 68.052 139.175 68.0353C138.954 68.0168 138.731 68.0305 138.513 68.076C138.391 68.1011 138.271 68.136 138.154 68.1804C138.056 68.228 137.965 68.2906 137.884 68.366C137.834 68.4067 137.762 68.6329 137.884 68.6329C137.999 68.6445 138.116 68.6445 138.231 68.6329L138.535 68.6039C138.75 68.5924 138.966 68.5924 139.181 68.6039C139.391 68.6166 139.598 68.6556 139.799 68.7199C139.887 68.7489 139.976 68.7605 140.064 68.7837C140.152 68.807 140.163 68.8128 140.213 68.8186C140.277 68.8243 140.342 68.8243 140.406 68.8186C140.484 68.807 140.506 68.6561 140.467 68.6039Z" fill="#874C4C"/>
<path opacity="0.2" d="M140.467 68.6039C140.311 68.3914 140.094 68.2369 139.849 68.163C139.629 68.0948 139.404 68.052 139.175 68.0353C138.954 68.0168 138.731 68.0305 138.513 68.076C138.391 68.1011 138.271 68.136 138.154 68.1804C138.056 68.228 137.965 68.2906 137.884 68.366C137.834 68.4067 137.762 68.6329 137.884 68.6329C137.999 68.6445 138.116 68.6445 138.231 68.6329L138.535 68.6039C138.75 68.5924 138.966 68.5924 139.181 68.6039C139.391 68.6166 139.598 68.6556 139.799 68.7199C139.887 68.7489 139.976 68.7605 140.064 68.7837C140.152 68.807 140.163 68.8128 140.213 68.8186C140.277 68.8243 140.342 68.8243 140.406 68.8186C140.484 68.807 140.506 68.6561 140.467 68.6039Z" fill="black"/>
<path d="M145.987 58.629L143.581 57.6195C143.635 57.4496 143.722 57.2931 143.836 57.1599C143.95 57.0267 144.09 56.9195 144.245 56.845C144.4 56.7705 144.568 56.7303 144.739 56.7268C144.909 56.7233 145.079 56.7566 145.237 56.8247C145.557 56.9677 145.814 57.2343 145.954 57.5699C146.093 57.9054 146.105 58.2844 145.987 58.629Z" fill="#263238"/>
<path d="M137.768 57.795L135.201 57.2148C135.157 57.3883 135.147 57.5694 135.171 57.7472C135.196 57.9249 135.255 58.0955 135.344 58.2485C135.433 58.4016 135.551 58.534 135.691 58.6375C135.831 58.7411 135.989 58.8137 136.156 58.8509C136.502 58.9267 136.863 58.8593 137.163 58.6626C137.464 58.4659 137.68 58.1552 137.768 57.795Z" fill="#263238"/>
<path d="M143.36 61.0655C143.338 61.3679 143.43 61.6671 143.616 61.8992C143.801 62.1312 144.066 62.2776 144.353 62.3071C144.493 62.3239 144.634 62.3111 144.769 62.2694C144.904 62.2277 145.029 62.158 145.138 62.0644C145.246 61.9708 145.336 61.8552 145.401 61.7244C145.467 61.5937 145.506 61.4505 145.518 61.3034C145.539 61.0011 145.448 60.7018 145.262 60.4698C145.076 60.2378 144.811 60.0913 144.524 60.0619C144.385 60.045 144.243 60.0579 144.109 60.0995C143.974 60.1412 143.848 60.211 143.74 60.3046C143.631 60.3982 143.541 60.5138 143.476 60.6445C143.411 60.7752 143.371 60.9184 143.36 61.0655Z" fill="#263238"/>
<path d="M135.521 61.2167C135.5 61.5191 135.592 61.8183 135.777 62.0503C135.963 62.2824 136.228 62.4288 136.515 62.4583C136.654 62.4759 136.795 62.4639 136.93 62.4229C137.065 62.3819 137.19 62.3127 137.299 62.2196C137.408 62.1264 137.497 62.0111 137.563 61.8807C137.628 61.7503 137.668 61.6073 137.679 61.4604C137.701 61.158 137.609 60.8588 137.423 60.6268C137.238 60.3947 136.973 60.2483 136.686 60.2188C136.547 60.2012 136.405 60.2132 136.271 60.2542C136.136 60.2952 136.01 60.3644 135.902 60.4575C135.793 60.5507 135.703 60.6659 135.638 60.7964C135.572 60.9268 135.533 61.0698 135.521 61.2167Z" fill="#263238"/>
<path d="M144.336 65.0196L140.804 66.3771L139.865 59.9258C141.223 59.9606 142.967 62.2116 144.336 65.0196Z" fill="#874C4C"/>
<path d="M139.137 75.618C135.024 75.1713 131.089 73.7499 130.172 71.7773C130.337 73.0154 130.926 74.1477 131.828 74.9624C134.588 77.3759 139.225 77.1438 139.225 77.1438L139.137 75.618Z" fill="#874C4C"/>
<path d="M114.627 135.8C112.894 136.317 110.675 134.06 110.068 133.265C109.461 132.47 110.239 130.602 110.62 129.024C111.001 127.446 110.62 124.771 112.48 125.543C114.34 126.315 118.237 131.542 114.627 135.8Z" fill="#874C4C"/>
<path d="M121.285 81.3672C116.461 82.1214 114.225 83.3339 111.57 88.9441C108.479 95.4766 103.477 104.562 102.705 107.399C101.982 110.039 100.546 111.924 103.295 115.933C105.807 119.605 113.712 129.224 114.887 130.634C115.914 131.882 115.345 135.461 111.813 134.927C111.813 134.927 114.501 137.428 115.975 137.149C117.25 136.912 119.254 135.74 121.092 131.679C122.251 129.114 121.279 127.107 119.519 124.253C117.41 120.847 112.856 111.35 112.856 111.35L121.003 96.1554C121.003 96.1554 125.392 85.875 121.285 81.3672Z" fill="#9E6767"/>
<path d="M170.198 231.22C170.141 230.403 169.79 229.639 169.215 229.085C168.717 228.504 168.038 228.128 167.3 228.023C167.173 228.023 167.107 228.215 167.101 228.319C167.092 228.394 167.101 228.469 167.128 228.538C167.156 228.607 167.199 228.668 167.256 228.714C167.801 229.013 168.31 229.379 168.774 229.805C168.96 230.013 169.118 230.247 169.243 230.501C169.276 230.565 169.305 230.631 169.331 230.698V230.733L169.375 230.855C169.425 231.005 169.491 231.156 169.53 231.313C169.576 231.599 169.6 231.888 169.602 232.177C169.6 232.272 169.621 232.366 169.662 232.45C169.806 232.671 170.005 232.27 170.06 232.119C170.163 231.833 170.21 231.527 170.198 231.22Z" fill="#FAFAFA"/>
<path d="M171.302 227.6C170.763 226.934 170.098 226.394 169.348 226.016C168.595 225.562 167.703 225.437 166.864 225.668C166.654 225.749 166.676 226.248 166.864 226.3C167.627 226.473 168.376 226.708 169.105 227.002C169.68 227.275 170.195 227.67 170.618 228.162C171.672 229.386 172.003 231.092 172.009 232.699C172.009 232.815 172.125 232.804 172.163 232.699C172.991 231.028 172.395 228.975 171.302 227.6Z" fill="#FAFAFA"/>
<path d="M58.5672 66.3463C61.5811 72.6098 68.6688 77.918 81.0667 77.9293C86.5867 77.9293 91.0524 76.8666 94.5797 75.1424C96.9478 78.1272 101.756 79.2352 105.261 77.8445C105.364 77.8029 105.452 77.7304 105.514 77.6367C105.577 77.5429 105.61 77.4322 105.61 77.3188C105.61 77.2054 105.577 77.0947 105.514 77.0009C105.452 76.9072 105.364 76.8347 105.261 76.7931C101.723 75.2781 100.701 72.7059 100.425 70.8913C101.693 69.5596 102.751 68.0338 103.561 66.3689C105.187 63.0812 105.924 59.4077 105.696 55.7298C105.468 52.0518 104.283 48.5034 102.264 45.4528C98.267 39.2062 89.4792 35.2773 81.0612 35.2773C72.6432 35.2773 63.8554 39.2005 59.8589 45.4528C57.8459 48.5019 56.6649 52.0463 56.4378 55.7196C56.2107 59.3928 56.9458 63.0615 58.5672 66.3463Z" fill="white"/>
<path d="M102.004 78.6451C99.1615 78.6451 96.2304 77.4523 94.5247 75.4002C90.7545 77.2092 86.2447 78.1306 81.089 78.1306H81.0504C66.2236 78.1306 60.4884 70.7817 58.3852 66.4402C56.7469 63.1206 56.0043 59.413 56.2343 55.7009C56.4643 51.9889 57.6585 48.4071 59.6935 45.3262C63.6237 39.1814 72.2128 35.0547 81.0669 35.0547C89.921 35.0547 98.5101 39.1757 102.44 45.3206C104.482 48.3988 105.683 51.9804 105.918 55.694C106.153 59.4076 105.413 63.1179 103.776 66.4402C102.97 68.0987 101.924 69.6233 100.674 70.9626C100.978 72.7659 102.048 75.1741 105.371 76.6156C105.512 76.675 105.631 76.7764 105.714 76.9066C105.797 77.0368 105.839 77.1896 105.835 77.3449C105.837 77.4985 105.793 77.6491 105.708 77.7757C105.623 77.9023 105.501 77.9987 105.36 78.0515C104.287 78.4611 103.149 78.6624 102.004 78.6451ZM94.6351 74.8802L94.7344 75.0102C96.9976 77.8367 101.684 79.0408 105.189 77.6445C105.253 77.6205 105.308 77.5764 105.346 77.5185C105.383 77.4605 105.402 77.3918 105.399 77.3223C105.403 77.2504 105.385 77.179 105.347 77.1182C105.31 77.0574 105.254 77.0101 105.189 76.9831C101.629 75.4568 100.525 72.8451 100.221 70.923V70.8213L100.293 70.7478C101.551 69.415 102.598 67.8891 103.395 66.2254C104.999 62.9751 105.726 59.3455 105.501 55.7114C105.277 52.0772 104.11 48.5702 102.12 45.5523C98.3224 39.6223 89.6781 35.4787 81.089 35.4787C72.4999 35.4787 63.8556 39.6223 60.0578 45.5523C58.0611 48.5723 56.889 52.0839 56.6628 55.7237C56.4367 59.3634 57.1648 62.9989 58.7716 66.2537C60.8306 70.533 66.4665 77.7067 81.089 77.718C86.2502 77.718 90.7656 76.7852 94.5136 74.9537L94.6351 74.8802Z" fill="#455A64"/>
<path d="M86.2006 60.8512C87.6689 62.5076 87.8014 64.52 87.8014 66.9339H74.2939C74.2939 64.52 74.4264 62.5076 75.8948 60.8512C77.3631 59.1949 78.5443 58.6239 79.146 58.0247C79.3738 57.87 79.5606 57.66 79.6898 57.4134C79.819 57.1668 79.8866 56.8913 79.8866 56.6115C79.8866 56.3316 79.819 56.0561 79.6898 55.8095C79.5606 55.5629 79.3738 55.3529 79.146 55.1982C78.5443 54.599 77.3576 54.0224 75.8948 52.3717C74.432 50.721 74.2939 48.7029 74.2939 46.2891H87.8014C87.8014 48.7029 87.6689 50.721 86.2006 52.3717C84.7323 54.0224 83.551 54.599 82.9493 55.1982C82.7216 55.3529 82.5348 55.5629 82.4055 55.8095C82.2763 56.0561 82.2087 56.3316 82.2087 56.6115C82.2087 56.8913 82.2763 57.1668 82.4055 57.4134C82.5348 57.66 82.7216 57.87 82.9493 58.0247C83.275 58.3469 83.7773 58.6692 84.3955 59.1553C85.0462 59.6634 85.6504 60.231 86.2006 60.8512Z" fill="#4485FD"/>
<path opacity="0.6" d="M86.2006 60.8512C87.6689 62.5076 87.8014 64.52 87.8014 66.9339H74.2939C74.2939 64.52 74.4264 62.5076 75.8948 60.8512C77.3631 59.1949 78.5443 58.6239 79.146 58.0247C79.3738 57.87 79.5606 57.66 79.6898 57.4134C79.819 57.1668 79.8866 56.8913 79.8866 56.6115C79.8866 56.3316 79.819 56.0561 79.6898 55.8095C79.5606 55.5629 79.3738 55.3529 79.146 55.1982C78.5443 54.599 77.3576 54.0224 75.8948 52.3717C74.432 50.721 74.2939 48.7029 74.2939 46.2891H87.8014C87.8014 48.7029 87.6689 50.721 86.2006 52.3717C84.7323 54.0224 83.551 54.599 82.9493 55.1982C82.7216 55.3529 82.5348 55.5629 82.4055 55.8095C82.2763 56.0561 82.2087 56.3316 82.2087 56.6115C82.2087 56.8913 82.2763 57.1668 82.4055 57.4134C82.5348 57.66 82.7216 57.87 82.9493 58.0247C83.275 58.3469 83.7773 58.6692 84.3955 59.1553C85.0462 59.6634 85.6504 60.231 86.2006 60.8512Z" fill="white"/>
<path opacity="0.5" d="M74.6746 66.6483C74.638 66.6483 74.6029 66.6334 74.577 66.6069C74.5512 66.5804 74.5366 66.5444 74.5366 66.5069C74.5366 64.4775 74.6801 62.5498 76.0767 60.9444C76.7951 60.1391 77.6006 59.4203 78.4779 58.8019C78.7743 58.598 79.0565 58.3732 79.3225 58.1292C79.5696 57.9532 79.7714 57.7186 79.9108 57.4455C80.0502 57.1723 80.123 56.8687 80.123 56.5605C80.123 56.2522 80.0502 55.9486 79.9108 55.6754C79.7714 55.4023 79.5696 55.1677 79.3225 54.9917C79.0574 54.749 78.7772 54.5243 78.4834 54.319C77.6045 53.6984 76.7972 52.9777 76.0767 52.1709C74.6801 50.5937 74.5532 48.6434 74.5366 46.614C74.5366 46.5765 74.5512 46.5406 74.577 46.5141C74.6029 46.4875 74.638 46.4727 74.6746 46.4727C74.7098 46.4727 74.7435 46.487 74.7683 46.5124C74.7931 46.5378 74.8071 46.5723 74.8071 46.6083C74.8071 48.5869 74.9451 50.4806 76.2754 51.99C76.9825 52.7788 77.7751 53.4825 78.638 54.0873C78.9365 54.3031 79.2205 54.5391 79.4881 54.7939C79.7595 54.997 79.9804 55.2628 80.1326 55.5698C80.2848 55.8767 80.3642 56.2162 80.3642 56.5605C80.3642 56.9047 80.2848 57.2442 80.1326 57.5511C79.9804 57.8581 79.7595 58.1239 79.4881 58.327C79.2134 58.581 78.922 58.8152 78.6159 59.028C77.7518 59.6333 76.959 60.339 76.2533 61.1309C74.923 62.6346 74.8016 64.5227 74.785 66.5069C74.7857 66.54 74.775 66.5722 74.7548 66.5981C74.7346 66.6239 74.7063 66.6416 74.6746 66.6483Z" fill="white"/>
<path d="M85.6046 61.3652C86.7086 62.6032 86.9405 64.1917 86.9791 66.0176H75.1553C75.1939 64.1634 75.3871 62.5919 76.5298 61.3652C77.6724 60.1385 79.08 59.6014 81.0672 59.6014C81.9 59.5722 82.7301 59.7131 83.5091 60.016C84.2882 60.3188 85.0005 60.7774 85.6046 61.3652Z" fill="#FAFAFA"/>
<path d="M86.9235 48.2264C86.8821 49.5204 86.4175 50.7627 85.6042 51.7539C84.9139 52.5256 84.1397 53.214 83.2969 53.8059C82.9771 54.0311 82.6727 54.2785 82.3861 54.5465C82.0965 54.7951 81.8598 55.1021 81.6908 55.4483C81.5218 55.7944 81.424 56.1725 81.4035 56.5589C81.4035 57.2373 81.2931 57.4125 81.0668 57.4125C80.8405 57.4125 80.7301 57.2543 80.7301 56.5589C80.7096 56.1725 80.6118 55.7944 80.4428 55.4483C80.2737 55.1021 80.0371 54.7951 79.7475 54.5465C79.4628 54.2785 79.1603 54.0311 78.8422 53.8059C77.9965 53.2157 77.2203 52.5271 76.5293 51.7539C76.2758 51.4673 76.057 51.1503 75.878 50.8098C75.8658 50.7849 75.8608 50.757 75.8635 50.7293C75.8662 50.7016 75.8766 50.6752 75.8934 50.6533C75.9101 50.6314 75.9326 50.6148 75.9583 50.6055C75.9839 50.5962 76.0116 50.5945 76.0381 50.6007C77.1039 50.8609 78.2006 50.9637 79.2949 50.9059C81.4697 50.7703 82.4468 50.3972 83.8102 49.21C84.6272 48.509 85.2454 47.5141 85.7919 47.2993C85.9278 47.2224 86.0828 47.1886 86.2375 47.2021C86.3921 47.2156 86.5394 47.2758 86.6606 47.3751C86.7818 47.4744 86.8715 47.6083 86.9183 47.7599C86.9651 47.9114 86.9669 48.0738 86.9235 48.2264Z" fill="#FAFAFA"/>
<path d="M81.067 58.8136C81.2896 58.8136 81.47 58.6289 81.47 58.401C81.47 58.173 81.2896 57.9883 81.067 57.9883C80.8445 57.9883 80.6641 58.173 80.6641 58.401C80.6641 58.6289 80.8445 58.8136 81.067 58.8136Z" fill="#FAFAFA"/>
<path opacity="0.3" d="M84.3952 59.1523C85.0459 59.6604 85.65 60.2281 86.2003 60.8482C87.6686 62.5046 87.801 64.5171 87.801 66.9309H75.8447C77.6498 66.9309 82.7006 66.066 84.5056 64.257C86.4155 62.3293 85.4771 60.6956 84.3952 59.1523Z" fill="#4485FD"/>
<path opacity="0.3" d="M87.8013 46.3008C87.8013 48.7146 87.6688 50.7327 86.2005 52.3834C84.7322 54.0341 83.5509 54.6107 82.9492 55.2099C82.7215 55.3646 82.5347 55.5746 82.4055 55.8212C82.2763 56.0678 82.2086 56.3433 82.2086 56.6232C82.2086 56.903 82.2763 57.1785 82.4055 57.4251C82.5347 57.6717 82.7215 57.8817 82.9492 58.0364C80.9676 56.8041 81.2932 55.5661 81.6576 54.7407C82.0219 53.9154 84.4948 52.3552 84.3568 50.0713C84.2188 47.7875 80.7468 46.3177 77.4458 46.3177L87.8013 46.3008Z" fill="#4485FD"/>
<path d="M89.0213 44.4531C89.0213 44.7785 88.8951 45.0905 88.6704 45.3205C88.4458 45.5506 88.1411 45.6798 87.8234 45.6798H74.316C73.9983 45.6798 73.6936 45.5506 73.469 45.3205C73.2444 45.0905 73.1182 44.7785 73.1182 44.4531H89.0213Z" fill="#4485FD"/>
<path opacity="0.2" d="M83.5565 44.4531C83.555 44.779 83.4276 45.091 83.2021 45.3209C82.9766 45.5508 82.6713 45.6798 82.3531 45.6798H74.316C73.9983 45.6798 73.6936 45.5506 73.469 45.3205C73.2444 45.0905 73.1182 44.7785 73.1182 44.4531H83.5565Z" fill="white"/>
<path d="M89.9763 42.9303V43.4052C89.9763 43.6825 89.8687 43.9486 89.6772 44.1447C89.4857 44.3408 89.226 44.451 88.9551 44.451H73.1955C72.9247 44.451 72.6649 44.3408 72.4734 44.1447C72.2819 43.9486 72.1743 43.6825 72.1743 43.4052V42.9303C72.1758 42.8728 72.1991 42.8182 72.2393 42.7781C72.2795 42.7379 72.3334 42.7155 72.3896 42.7155H89.75C89.7789 42.7132 89.808 42.717 89.8354 42.7267C89.8628 42.7365 89.8879 42.7519 89.9091 42.7721C89.9304 42.7923 89.9474 42.8168 89.9589 42.844C89.9705 42.8712 89.9764 42.9006 89.9763 42.9303Z" fill="#4485FD"/>
<path opacity="0.15" d="M89.9427 42.9297V43.4045C89.9427 43.6819 89.8351 43.9479 89.6436 44.144C89.4521 44.3401 89.1923 44.4503 88.9215 44.4503H73.1784C72.9076 44.4503 72.6478 44.3401 72.4563 44.144C72.2648 43.9479 72.1572 43.6819 72.1572 43.4045V42.9297C72.1572 42.8727 72.1793 42.818 72.2187 42.7778C72.258 42.7375 72.3114 42.7148 72.367 42.7148H89.7274C89.7835 42.7148 89.8375 42.7373 89.8777 42.7774C89.9179 42.8175 89.9412 42.8722 89.9427 42.9297Z" fill="black"/>
<path d="M85.4334 42.9297V43.4045C85.4334 43.6819 85.3258 43.9479 85.1343 44.144C84.9427 44.3401 84.683 44.4503 84.4122 44.4503H73.1955C72.9247 44.4503 72.6649 44.3401 72.4734 44.144C72.2819 43.9479 72.1743 43.6819 72.1743 43.4045V42.9297C72.1758 42.8722 72.1991 42.8175 72.2393 42.7774C72.2795 42.7373 72.3334 42.7148 72.3896 42.7148H85.2236C85.2792 42.7148 85.3326 42.7375 85.3719 42.7778C85.4113 42.818 85.4334 42.8727 85.4334 42.9297Z" fill="#4485FD"/>
<path opacity="0.2" d="M74.8787 44.4503C74.6807 44.2066 74.5723 43.8996 74.5723 43.5826C74.5723 43.2656 74.6807 42.9585 74.8787 42.7148H78.4943C78.6953 42.9571 78.8057 43.2646 78.8057 43.5826C78.8057 43.9005 78.6953 44.2081 78.4943 44.4503H74.8787Z" fill="white"/>
<path opacity="0.2" d="M75.4917 45.6798C75.3588 45.5044 75.2866 45.2886 75.2866 45.0665C75.2866 44.8444 75.3588 44.6286 75.4917 44.4531H77.8874C78.0203 44.6286 78.0925 44.8444 78.0925 45.0665C78.0925 45.2886 78.0203 45.5044 77.8874 45.6798H75.4917Z" fill="white"/>
<path d="M73.1182 68.6642C73.1182 68.3389 73.2444 68.0268 73.469 67.7968C73.6936 67.5667 73.9983 67.4375 74.316 67.4375H87.8234C88.1411 67.4375 88.4458 67.5667 88.6704 67.7968C88.8951 68.0268 89.0213 68.3389 89.0213 68.6642H73.1182Z" fill="#4485FD"/>
<path opacity="0.2" d="M78.583 68.6642C78.583 68.3389 78.7092 68.0268 78.9338 67.7968C79.1585 67.5667 79.4632 67.4375 79.7808 67.4375H87.8235C88.1412 67.4375 88.4458 67.5667 88.6705 67.7968C88.8951 68.0268 89.0213 68.3389 89.0213 68.6642H78.583Z" fill="white"/>
<path d="M72.1743 70.1925V69.7177C72.1743 69.4403 72.2819 69.1743 72.4734 68.9782C72.6649 68.7821 72.9247 68.6719 73.1955 68.6719H88.9386C89.2094 68.6719 89.4691 68.7821 89.6607 68.9782C89.8522 69.1743 89.9598 69.4403 89.9598 69.7177V70.1925C89.9605 70.2212 89.9556 70.2498 89.9454 70.2765C89.9352 70.3032 89.9199 70.3275 89.9003 70.3481C89.8808 70.3686 89.8574 70.385 89.8316 70.3961C89.8057 70.4073 89.778 70.413 89.75 70.413H72.3896C72.3325 70.413 72.2777 70.3898 72.2374 70.3484C72.197 70.3071 72.1743 70.251 72.1743 70.1925Z" fill="#4485FD"/>
<path opacity="0.15" d="M72.1743 70.1925V69.7177C72.1743 69.4403 72.2819 69.1743 72.4734 68.9782C72.6649 68.7821 72.9247 68.6719 73.1955 68.6719H88.9386C89.2094 68.6719 89.4691 68.7821 89.6607 68.9782C89.8522 69.1743 89.9598 69.4403 89.9598 69.7177V70.1925C89.9605 70.2212 89.9556 70.2498 89.9454 70.2765C89.9352 70.3032 89.9199 70.3275 89.9003 70.3481C89.8808 70.3686 89.8574 70.385 89.8316 70.3961C89.8057 70.4073 89.778 70.413 89.75 70.413H72.3896C72.3325 70.413 72.2777 70.3898 72.2374 70.3484C72.197 70.3071 72.1743 70.251 72.1743 70.1925Z" fill="black"/>
<path d="M76.7276 70.1925V69.7177C76.7276 69.4403 76.8352 69.1743 77.0267 68.9782C77.2183 68.7821 77.478 68.6719 77.7488 68.6719H88.9655C89.2363 68.6719 89.4961 68.7821 89.6876 68.9782C89.8791 69.1743 89.9867 69.4403 89.9867 69.7177V70.1925C89.9874 70.2212 89.9825 70.2498 89.9723 70.2765C89.9621 70.3032 89.9468 70.3275 89.9272 70.3481C89.9077 70.3686 89.8843 70.385 89.8585 70.3961C89.8327 70.4073 89.8049 70.413 89.7769 70.413H76.9153C76.8626 70.4073 76.814 70.3814 76.7792 70.3405C76.7444 70.2996 76.726 70.2468 76.7276 70.1925Z" fill="#4485FD"/>
<path opacity="0.2" d="M87.2547 68.6719C87.4551 68.9155 87.5651 69.2239 87.5651 69.5424C87.5651 69.861 87.4551 70.1694 87.2547 70.413H83.6391C83.4407 70.1684 83.332 69.8604 83.332 69.5424C83.332 69.2244 83.4407 68.9165 83.6391 68.6719H87.2547Z" fill="white"/>
<path opacity="0.2" d="M86.6644 67.4375C86.7973 67.613 86.8695 67.8288 86.8695 68.0509C86.8695 68.2729 86.7973 68.4887 86.6644 68.6642H84.2632C84.1312 68.4883 84.0596 68.2727 84.0596 68.0509C84.0596 67.829 84.1312 67.6134 84.2632 67.4375H86.6644Z" fill="white"/>
</svg>
