<svg class="svg-icon" style="width: 1em; height: 1em;vertical-align: middle;fill: currentColor;overflow: hidden;" viewBox="0 0 1024 1024" version="1.1" xmlns="http://www.w3.org/2000/svg"><path d="M878.6 412c0 21.6-6.1 40.9-18.5 57.8-12.4 17-28.4 29.1-48.2 36.5V712c0 55.2-22.8 102.3-68.5 141.4-45.6 39.1-100.5 58.6-164.8 58.6-64.2 0-119.2-19.5-164.8-58.6s-68.5-86.2-68.5-141.4v-68.8c-57-6.9-104.5-29.1-142.7-66.7-38.2-37.5-57.3-81.3-57.3-131.2V178.6c0-9 3.3-16.9 9.9-23.4 6.6-6.6 14.3-9.9 23.4-9.9 2.1 0 4.8 0.3 8.3 1.1 5.9-10.4 14-18.7 24.4-25s21.7-9.4 33.8-9.4c18.4 0 34.1 6.5 47.1 19.5s19.5 28.7 19.5 47.1-6.5 34.1-19.5 47.1-28.7 19.5-47.1 19.5c-11.5 0-22.6-3.2-33.3-9.4v209.3c0 36.8 16.3 68.2 49 94.3 32.6 26.1 71.9 39.1 117.7 39.1s85.1-13 117.7-39.1c32.6-26.1 49-57.5 49-94.3V235.9c-10.7 6.2-21.9 9.4-33.3 9.4-18.4 0-34.1-6.5-47.1-19.5s-19.5-28.7-19.5-47.1 6.5-34.1 19.5-47.1 28.7-19.5 47.1-19.5c12.2 0 23.4 3.2 33.8 9.4 10.4 6.2 18.6 14.6 24.4 25 3.5-0.7 6.2-1.1 8.3-1.1 9 0 16.9 3.3 23.4 9.9 6.6 6.6 9.9 14.5 9.9 23.4v266.6c0 49.9-19.1 93.8-57.3 131.2-38.2 37.5-85.8 59.7-142.7 66.7V712c0 36.8 16.3 68.2 49 94.3 32.7 26 72 38.9 117.9 38.9 45.8 0 85.1-13 117.7-39.1 32.6-26.1 49-57.5 49-94.3V506.2c-19.8-7.3-35.8-19.4-48.2-36.5-12.4-17-18.5-36.3-18.5-57.8 0-27.8 9.7-51.4 29.1-70.9 19.4-19.4 43-29.1 70.9-29.1 27.8 0 51.4 9.7 70.9 29.1 19.5 19.5 29.1 43.2 29.1 71z m-76.5 23.3c6.6-6.6 9.9-14.3 9.9-23.4 0-9-3.3-16.9-9.9-23.4-6.6-6.6-14.5-9.9-23.4-9.9s-16.9 3.3-23.4 9.9c-6.6 6.6-9.9 14.5-9.9 23.4 0 9 3.3 16.9 9.9 23.4 6.6 6.6 14.3 9.9 23.4 9.9 9 0.1 16.8-3.2 23.4-9.9z"  /></svg>